<?xml version="1.0" encoding="UTF-8" standalone="no" ?>
<!DOCTYPE svg PUBLIC "-//W3C//DTD SVG 1.1//EN" "http://www.w3.org/Graphics/SVG/1.1/DTD/svg11.dtd">
<svg xmlns="http://www.w3.org/2000/svg" xmlns:xlink="http://www.w3.org/1999/xlink" version="1.1" width="1080" height="1080" viewBox="0 0 1080 1080" xml:space="preserve">
<desc>Created with Fabric.js 5.2.4</desc>
<defs>
</defs>
<g transform="matrix(1 0 0 1 540 540)" id="24fc8098-84a0-43cd-ae44-e557481ce99a"  >
</g>
<g transform="matrix(1 0 0 1 540 540)" id="bf5cbe6a-03a9-4eb8-93cc-0f251b4581a6"  >
<rect style="stroke: none; stroke-width: 1; stroke-dasharray: none; stroke-linecap: butt; stroke-dashoffset: 0; stroke-linejoin: miter; stroke-miterlimit: 4; fill: rgb(255,255,255); fill-rule: nonzero; opacity: 1; visibility: hidden;" vector-effect="non-scaling-stroke"  x="-540" y="-540" rx="0" ry="0" width="1080" height="1080" />
</g>
<g transform="matrix(1.33 0 0 -1.33 266.46 545.84)"  >
<path style="stroke: none; stroke-width: 1; stroke-dasharray: none; stroke-linecap: butt; stroke-dashoffset: 0; stroke-linejoin: miter; stroke-miterlimit: 4; fill: rgb(0,0,0); fill-rule: evenodd; opacity: 1;" vector-effect="non-scaling-stroke"  transform=" translate(-51, -112)" d="M 68.6767 114.0094 C 68.6767 114.0094 72.37299999999999 109.4865 77.8445 105.6983 C 83.3145 101.90950000000001 84.57679999999999 97.5977 82.1571 93.4946 C 79.7377 89.39110000000001 71.9237 91.6002 68.6767 93.4946 L 68.6767 76.9768 C 68.6767 76.9768 82.68379999999999 70.33919999999999 79.10669999999999 61.1399 C 75.5289 51.94029999999999 50.49009999999999 55.0973 45.86139999999999 79.7134 C 41.23419999999999 104.3317 52.22919999999999 118.90369999999999 52.22919999999999 118.90369999999999 C 52.22919999999999 118.90369999999999 35.81739999999999 119.00919999999999 37.711299999999994 133.528 C 37.711299999999994 133.528 32.02949999999999 132.6864 31.398199999999996 140.57659999999998 C 31.398199999999996 140.57659999999998 25.402999999999995 137.6308 25.718499999999995 146.1523 C 25.718499999999995 146.1523 20.772299999999994 143.6278 18.985599999999994 148.0459 C 17.196899999999996 152.4645 23.088199999999993 160.03959999999998 32.76599999999999 158.5675 C 42.444599999999994 157.0929 43.708299999999994 160.5662 45.28689999999999 162.1426 C 46.86489999999999 163.72119999999998 50.862599999999986 167.4023 58.54419999999999 165.92999999999998 C 66.22359999999999 164.45819999999998 68.67669999999998 167.61319999999998 68.67669999999998 167.61319999999998 L 68.67669999999998 148.15529999999998 C 68.39889999999998 148.2225 68.10999999999999 148.2576 67.81209999999999 148.2576 C 65.77849999999998 148.2576 64.13099999999999 146.6093 64.13099999999999 144.57659999999998 C 64.13099999999999 142.54209999999998 65.77849999999998 140.8927 67.81209999999999 140.8927 C 68.10999999999999 140.8927 68.39889999999998 140.9278 68.67669999999998 140.9956 z M 59.3572 141.2731 C 61.6122 141.8771 64.2124 139.4895 65.1631 135.9391 C 66.1136 132.38819999999998 65.0568 129.01919999999998 62.8038 128.4151 C 60.546600000000005 127.8102 57.9487 130.2001 56.995900000000006 133.7511 C 56.044900000000005 137.3012 57.10170000000001 140.66840000000002 59.357200000000006 141.2731 z M 49.6114 142.3675 C 51.6464 142.3675 53.2956 140.71800000000002 53.2956 138.6836 C 53.2956 136.65120000000002 51.6464 135.00230000000002 49.6114 135.00230000000002 C 47.5792 135.00230000000002 45.9303 136.65120000000002 45.9303 138.6836 C 45.9303 140.71800000000002 47.5792 142.3675 49.6114 142.3675" stroke-linecap="round" />
</g>
<g transform="matrix(1.33 0 0 -1.33 619.53 569.08)"  >
<path style="stroke: none; stroke-width: 1; stroke-dasharray: none; stroke-linecap: butt; stroke-dashoffset: 0; stroke-linejoin: miter; stroke-miterlimit: 4; fill: rgb(0,0,0); fill-rule: nonzero; opacity: 1;" vector-effect="non-scaling-stroke"  transform=" translate(-316.14, -94.61)" d="M 188.8753 122.9094 C 204.9755 122.9094 214.5705 110.5498 214.5705 95.26310000000001 C 214.5705 79.8134 205.7885 66.31540000000001 189.038 66.31540000000001 C 172.77530000000002 66.31540000000001 163.99360000000001 80.46400000000001 163.99360000000001 95.42550000000001 C 163.99360000000001 109.73680000000002 173.751 122.9094 188.8753 122.9094 z M 226.9301 132.8298 L 213.9199 132.8298 L 213.9199 121.9337 L 213.5945 121.9337 C 207.25230000000002 130.0652 197.8197 134.9439 187.4117 134.9439 C 164.4814 134.9439 150.6583 116.24170000000001 150.6583 94.44980000000001 C 150.6583 73.30850000000001 164.8066 54.28120000000001 187.249 54.28120000000001 C 197.98239999999998 54.28120000000001 206.9269 58.509400000000014 213.59449999999998 66.96600000000001 L 213.91989999999998 66.96600000000001 L 213.91989999999998 56.3953 L 226.93009999999998 56.3953 z M 263.2538 122.9094 C 279.35400000000004 122.9094 288.949 110.5498 288.949 95.26310000000001 C 288.949 79.8134 280.16700000000003 66.31540000000001 263.41650000000004 66.31540000000001 C 247.15390000000005 66.31540000000001 238.37220000000005 80.46400000000001 238.37220000000005 95.42550000000001 C 238.37220000000005 109.73680000000002 248.12960000000004 122.9094 263.25380000000007 122.9094 z M 301.30870000000004 132.8298 L 288.29850000000005 132.8298 L 288.29850000000005 121.9337 L 287.97310000000004 121.9337 C 281.6308 130.0652 272.1983 134.9439 261.79030000000006 134.9439 C 238.86000000000007 134.9439 225.03690000000006 116.24170000000001 225.03690000000006 94.44980000000001 C 225.03690000000006 73.30850000000001 239.18510000000006 54.28120000000001 261.62760000000003 54.28120000000001 C 272.36100000000005 54.28120000000001 281.3054 58.509400000000014 287.97310000000004 66.96600000000001 L 288.29850000000005 66.96600000000001 L 288.29850000000005 56.3953 L 301.30870000000004 56.3953 z M 315.67800000000005 132.8298 L 302.6679 132.8298 L 302.6679 56.3953 L 315.678 56.3953 L 315.678 95.9136 C 315.678 107.46000000000001 317.3043 122.9094 332.5912 122.9094 C 345.11330000000004 122.9094 346.2517 109.2489 346.2517 99.8167 L 346.2517 56.3953 L 359.2619 56.3953 L 359.2619 96.88929999999999 C 359.2619 108.4357 360.8881 122.90939999999999 375.8496 122.90939999999999 C 389.1852 122.90939999999999 389.8358 110.71249999999999 389.8358 100.79229999999998 L 389.8358 56.395299999999985 L 402.8457 56.395299999999985 L 402.8457 102.90639999999999 C 402.8457 119.00639999999999 397.96700000000004 134.94389999999999 378.45180000000005 134.94389999999999 C 369.1820000000001 134.94389999999999 360.0751 130.7154 355.52150000000006 122.25909999999999 C 351.45580000000007 130.2276 343.32430000000005 134.94389999999999 334.3799000000001 134.94389999999999 C 326.5739000000001 134.94389999999999 320.0689000000001 130.8781 316.0032000000001 124.53559999999999 L 315.678 124.53559999999999 Z M 441.4465 54.2812 C 463.7262 54.2812 481.6151 72.00739999999999 481.6151 94.4498 C 481.6151 96.30959999999999 481.4906 98.1386 481.2548 99.9303 C 476.9371 97.32050000000001 472.6894 95.3972 468.59839999999997 94.0124 C 468.31859999999995 78.6767 457.3395 66.3154 441.44649999999996 66.3154 C 425.34619999999995 66.3154 414.2877 79.0004 414.2877 94.6125 C 414.2877 109.1197 424.0386 121.33189999999999 438.5585 122.76769999999999 C 441.1261 127.2589 444.00469999999996 131.1979 446.8839 134.5822 C 445.10769999999997 134.8191 443.2935 134.9439 441.44649999999996 134.9439 C 419.00399999999996 134.9439 401.2775 116.8923 401.2775 94.44980000000001 C 401.2775 72.00740000000002 419.16639999999995 54.28120000000001 441.44649999999996 54.28120000000001 z M 478.2203 110.8834 C 477.9836 111.4268 477.7353 111.96369999999999 477.4759 112.4943 C 476.9314 111.9416 476.3843 111.4044 475.83520000000004 110.8834 C 476.65110000000004 110.8947 477.4465 110.8942 478.22030000000007 110.8834 z M 470.5931 122.44279999999999 C 467.7673 125.4365 464.4842 127.98939999999999 460.8488 129.99259999999998 C 459.49039999999997 125.84299999999998 457.8143 122.12839999999998 455.9496 118.81359999999998 C 456.5157 118.45419999999999 457.0659 118.07399999999998 457.5994 117.67379999999999 C 462.1706 119.81279999999998 466.6028 121.34519999999999 470.5931 122.44279999999999" stroke-linecap="round" />
</g>
<g transform="matrix(1.33 0 0 -1.33 813.88 534.7)"  >
<path style="stroke: rgb(255,255,255); stroke-width: 2.71; stroke-dasharray: none; stroke-linecap: butt; stroke-dashoffset: 0; stroke-linejoin: miter; stroke-miterlimit: 2.61; fill: rgb(166,206,56); fill-rule: evenodd; opacity: 1;" vector-effect="non-scaling-stroke"  transform=" translate(-461.57, -120.42)" d="M 464.3297 150.0026 C 464.3297 150.0026 432.7605 131.3195 429.6436 94.3909 C 429.6436 94.3909 461.8511 80.0048 493.4923 109.19030000000001 C 493.4923 109.19030000000001 486.3141 111.0305 475.8352 110.88340000000001 C 479.8936 114.73460000000001 483.84 119.4415 487.48929999999996 125.21110000000002 C 487.48929999999996 125.21110000000002 471.33129999999994 125.03280000000002 454.27799999999996 116.02150000000002 C 459.5519 124.30910000000002 463.7367 135.4045 464.32969999999995 150.00260000000003 z" stroke-linecap="round" />
</g>
<g transform="matrix(1.33 0 0 -1.33 359.95 537.89)"  >
<path style="stroke: none; stroke-width: 1; stroke-dasharray: none; stroke-linecap: butt; stroke-dashoffset: 0; stroke-linejoin: miter; stroke-miterlimit: 4; fill: rgb(166,206,56); fill-rule: evenodd; opacity: 1;" vector-effect="non-scaling-stroke"  transform=" translate(-121.13, -117.96)" d="M 86.5755 129.1569 L 136.17610000000002 178.7584 L 155.68300000000002 178.7584 L 155.68300000000002 167.5599 L 147.3752 167.5599 L 97.774 117.9598 L 147.3752 68.3566 L 155.683 68.3566 L 155.683 57.1572 L 136.1761 57.1572 L 86.57549999999999 106.7607 z" stroke-linecap="round" />
</g>
</svg>